IKResults
version=1
nRows=14
nColumns=40
inDegrees=yes

Units are S.I. units (second, meters, Newtons, ...)
Angles are in degrees.

endheader
time	pelvis_tilt	pelvis_list	pelvis_rotation	pelvis_tx	pelvis_ty	pelvis_tz	hip_flexion_r	hip_adduction_r	hip_rotation_r	knee_angle_r	knee_angle_r_beta	ankle_angle_r	subtalar_angle_r	mtp_angle_r	hip_flexion_l	hip_adduction_l	hip_rotation_l	knee_angle_l	knee_angle_l_beta	ankle_angle_l	subtalar_angle_l	mtp_angle_l	lumbar_extension	lumbar_bending	lumbar_rotation	arm_flex_r	arm_add_r	arm_rot_r	elbow_flex_r	pro_sup_r	wrist_flex_r	wrist_dev_r	arm_flex_l	arm_add_l	arm_rot_l	elbow_flex_l	pro_sup_l	wrist_flex_l	wrist_dev_l
      1.35000000	     14.27244026	     -2.47928710	      5.04234733	      0.28277372	      0.92942539	     -1.46543227	      8.80758796	     -0.00049715	    -30.39045704	    -13.92025332	     -0.24295425	      2.63025667	     10.83516276	    -11.61896094	    -27.85045840	      3.16385245	      5.45856840	    -18.45592159	     -0.32211660	     13.49836088	      2.69677512	     -8.03179316	    -19.47660094	      4.03078690	     -7.17072898	    -16.07976695	     -9.98044021	     -2.82768897	     19.78379127	     89.95437384	      0.00000000	      0.00000000	     14.20436657	     13.50084880	      6.78825529	     54.48397005	     89.95437384	      0.00000000	      0.00000000
      1.36000000	     13.94242177	     -2.30182693	      5.25204145	      0.29467403	      0.92819971	     -1.46500672	      8.87619783	     -0.06331966	    -29.69238278	    -14.57387457	     -0.25436210	      2.49597195	     10.39247130	    -11.38401381	    -27.96603514	      3.21680591	      5.31342771	    -18.99726062	     -0.33156475	     13.13691704	      2.62793865	     -7.87497725	    -18.83092102	      3.89585586	     -7.21507490	    -16.66861540	     -9.91613889	     -2.80588427	     19.85295901	     89.95437384	      0.00000000	      0.00000000	     14.03031191	     13.31270125	      6.85732381	     54.83140793	     89.95437384	      0.00000000	      0.00000000
      1.37000000	     13.85691987	     -2.42903951	      5.73667442	      0.30692640	      0.92715843	     -1.46504834	      9.01746213	      0.08936445	    -28.85944401	    -16.38090034	     -0.28590065	      3.70779182	      8.11560789	    -11.11032802	    -28.54900289	      3.66542665	      4.84622705	    -19.04140504	     -0.33233521	     12.43065098	      2.62304065	     -7.70354202	    -18.47813617	      4.21954564	     -7.87926923	    -16.86297353	     -9.97903670	     -2.76590052	     19.69687893	     89.95437384	      0.00000000	      0.00000000	     13.03724551	     13.07363560	      7.91027303	     56.28478904	     89.95437384	      0.00000000	      0.00000000
      1.38000000	     13.53573702	     -2.34899601	      6.07636005	      0.31833635	      0.92638275	     -1.46471592	      9.23370258	      0.44171277	    -26.88178396	    -17.10757936	     -0.29858359	      2.16545680	      2.85632878	     -9.70026181	    -28.72268866	      3.68859766	      3.67794934	    -19.35164923	     -0.33774999	     11.90831634	      4.03733514	     -7.63641949	    -17.95078259	      4.23533611	     -8.45319863	    -16.84410384	    -10.03023847	     -1.94515078	     19.30296837	     89.95437384	      0.00000000	      0.00000000	     12.39933823	     12.85202046	      8.76472041	     56.96673016	     89.95437384	      0.00000000	      0.00000000
      1.39000000	     13.34606382	     -2.61538033	      6.43065395	      0.33029440	      0.92588134	     -1.46435269	      9.43681896	      0.63925340	    -26.50075029	    -17.96676209	     -0.31357915	      1.30826748	      1.63190474	     -9.26393011	    -28.89168513	      4.22171017	      3.46163800	    -19.91391220	     -0.34756333	     11.08231121	      4.25450022	     -7.49471156	    -17.47291663	      4.65986235	     -8.73872126	    -16.99575310	     -9.98859693	     -2.01391264	     19.02770620	     89.95437384	      0.00000000	      0.00000000	     11.84105773	     12.51135522	      9.34104414	     57.35370957	     89.95437384	      0.00000000	      0.00000000
      1.40000000	     13.21036559	     -2.93803480	      6.69353423	      0.34200642	      0.92574939	     -1.46384962	      9.62978139	      0.85863073	    -25.64644180	    -19.01282042	     -0.33183632	      1.09266406	      1.16831689	     -9.04203312	    -28.99100415	      4.73096172	      3.09263235	    -20.67591240	     -0.36086275	     10.28588293	      4.36653536	     -7.30457150	    -17.08056518	      5.11484172	     -8.79313355	    -17.16778500	     -9.95373461	     -1.96908808	     18.82020562	     89.95437384	      0.00000000	      0.00000000	     11.43234644	     12.18565257	      9.57951366	     57.45099054	     89.95437384	      0.00000000	      0.00000000
      1.41000000	     13.14702955	     -3.43552046	      6.94546022	      0.35403783	      0.92615125	     -1.46312481	      9.67260375	      1.24499506	    -25.32332749	    -20.25420694	     -0.35350260	      0.65877406	      0.17046181	     -8.76287809	    -29.04316664	      5.40406981	      3.00253823	    -21.63179457	     -0.37754604	      9.12673862	      4.98241003	     -7.05308401	    -16.70543666	      5.72632206	     -8.91761492	    -17.02393660	     -9.88934405	     -1.90033622	     18.16499614	     89.95437384	      0.00000000	      0.00000000	     10.86824796	     11.76140352	     10.12693276	     57.44997715	     89.95437384	      0.00000000	      0.00000000
      1.42000000	     13.16912983	     -3.79402078	      7.20363721	      0.36611797	      0.92697781	     -1.46260395	      9.47615947	      1.54367700	    -24.80759867	    -21.42406539	     -0.37392048	      0.19486359	     -0.58345417	     -8.47125683	    -29.04365922	      5.92989662	      2.82494501	    -22.79843423	     -0.39790774	      7.79771577	      5.65027657	     -6.78238671	    -16.45401915	      6.22922292	     -9.05259805	    -16.93161244	     -9.81246013	     -1.77788159	     17.61316651	     89.95437384	      0.00000000	      0.00000000	     10.29528517	     11.39436045	     10.54862506	     57.27859835	     89.95437384	      0.00000000	      0.00000000
      1.43000000	     13.37147252	     -4.34203623	      7.78337785	      0.37832886	      0.92872712	     -1.46207509	      8.46145384	      2.52233357	    -24.09369397	    -21.05454576	     -0.36747115	     -0.56280598	     -3.31527588	     -7.70326005	    -29.03684136	      6.70483451	      2.11044693	    -24.11712572	     -0.42092325	      6.38075421	      7.85934680	     -6.41493242	    -16.32052259	      6.97798446	     -9.59824707	    -16.39987856	     -9.62744841	     -1.87966670	     16.50632877	     89.95437384	      0.00000000	      0.00000000	      9.54154225	     10.96385531	     11.33700937	     57.05693045	     89.95437384	      0.00000000	      0.00000000
      1.44000000	     13.53492974	     -4.56334170	      7.88621080	      0.39050933	      0.93044378	     -1.46128144	      7.80026471	      2.91335539	    -23.59321313	    -21.55962146	     -0.37628638	     -0.20766776	     -3.49931983	     -7.50738140	    -28.94002299	      7.05710015	      2.24292050	    -25.61207777	     -0.44701509	      4.40430890	      8.81469593	     -6.06675332	    -16.21589029	      7.29066017	     -9.48199595	    -16.22333866	     -9.49163012	     -1.79567238	     15.94283761	     89.95437384	      0.00000000	      0.00000000	      9.09786051	     10.61477034	     11.44367086	     56.30544681	     89.95437384	      0.00000000	      0.00000000
      1.45000000	     13.73743508	     -4.70310256	      7.92714239	      0.40216916	      0.93244357	     -1.46036241	      7.02271698	      3.33561528	    -22.78515179	    -21.89117085	     -0.38207301	     -0.05943760	     -3.26989352	     -7.35050478	    -28.69958788	      7.22663723	      1.99598020	    -27.31597359	     -0.47675368	      2.51195878	      9.54488920	     -5.73121734	    -16.27163551	      7.51334784	     -9.27495157	    -15.99582877	     -9.33392852	     -1.73560420	     15.56304197	     89.95437384	      0.00000000	      0.00000000	      8.73310385	     10.25128808	     11.51771174	     55.45895828	     89.95437384	      0.00000000	      0.00000000
      1.46000000	     14.02535816	     -4.94071201	      8.09646948	      0.41422405	      0.93478658	     -1.45927747	      5.73495123	      4.05561377	    -22.33808431	    -21.38165871	     -0.37318034	      0.18756713	     -3.20735364	     -7.15205508	    -28.45742354	      7.61157752	      1.97504515	    -28.98103472	     -0.50581448	     -0.34409921	     11.48930196	     -5.20654385	    -16.33303249	      7.83854117	     -9.19743456	    -15.64986433	     -9.10765529	     -1.91883410	     14.98776229	     89.95437384	      0.00000000	      0.00000000	      8.27529970	      9.99772664	     11.52767044	     54.43282984	     89.95437384	      0.00000000	      0.00000000
      1.47000000	     14.37205932	     -5.03769239	      8.13237838	      0.42553500	      0.93733754	     -1.45808105	      4.31584493	      4.79793392	    -21.14891900	    -20.60491821	     -0.35962366	      0.03335404	     -4.31080043	     -5.88724032	    -28.16645482	      7.67609192	      1.52574411	    -30.74887125	     -0.53666904	     -2.45078233	     13.10418108	     -3.81439546	    -16.62243342	      8.00986466	     -8.88010811	    -15.24047048	     -8.77196252	     -2.87486544	     14.58627382	     89.95437384	      0.00000000	      0.00000000	      8.03522571	      9.73648256	     11.40090101	     53.24095360	     89.95437384	      0.00000000	      0.00000000
      1.48000000	     14.60172032	     -5.01817107	      8.19606896	      0.43669428	      0.93958183	     -1.45697722	      3.06661963	      5.12603190	    -21.15116247	    -20.08331011	     -0.35051989	      0.29620710	     -3.95240312	     -5.66339881	    -27.53811807	      7.71868148	      1.20407721	    -32.79597855	     -0.57239781	     -4.71043168	     14.27900888	     -3.30896664	    -16.80264622	      8.04309603	     -8.62401027	    -14.89220010	     -8.55742950	     -2.95065282	     14.39211486	     89.95437384	      0.00000000	      0.00000000	      7.79073844	      9.51437745	     11.22433619	     51.95064632	     89.95437384	      0.00000000	      0.00000000
